<?xml version="1.0" encoding="utf-8"?>
<!-- Generator: Adobe Illustrator 21.1.0, SVG Export Plug-In . SVG Version: 6.00 Build 0)  -->
<svg version="1.1" id="Layer_1" xmlns="http://www.w3.org/2000/svg" xmlns:xlink="http://www.w3.org/1999/xlink" x="0px" y="0px"
	 viewBox="0 0 930 287.3" style="enable-background:new 0 0 930 287.3;" xml:space="preserve">
<style type="text/css">
	.st0{fill:none;stroke:#AFB4C6;stroke-width:2;stroke-miterlimit:10;stroke-dasharray:5;}
	.st1{fill:#445DE9;}
	.st2{font-family:'HelveticaNeue-Bold';}
	.st3{font-size:18px;}
	.st4{opacity:0.4;fill:#445DE9;enable-background:new    ;}
	.st5{opacity:0.6;fill:#445DE9;enable-background:new    ;}
	.st6{fill:#FFFFFF;}
	.st7{font-family:'HelveticaNeue';}
	.st8{font-family:'HelveticaNeue-Medium';}
	.st9{fill:none;stroke:#445DE9;stroke-width:1.9399;stroke-miterlimit:10;}
</style>
<g>
	<g>
		<line class="st0" x1="6.8" y1="96" x2="291.8" y2="96"/>
		<line class="st0" x1="314.8" y1="96" x2="533.8" y2="96"/>
		<line class="st0" x1="540.8" y1="96" x2="757.8" y2="96"/>
		<line class="st0" x1="788.8" y1="96" x2="914.8" y2="96"/>
	</g>
	<g>
		<line class="st0" x1="6.8" y1="193" x2="291.8" y2="193"/>
		<line class="st0" x1="314.8" y1="193" x2="531.8" y2="193"/>
		<line class="st0" x1="540.8" y1="193" x2="757.8" y2="193"/>
		<line class="st0" x1="788.8" y1="193" x2="914.8" y2="193"/>
	</g>
	<g>
		<text transform="matrix(1 0 0 1 5.7999 148.965)" class="st1 st2 st3">FORM</text>
		<text transform="matrix(1 0 0 1 5.7999 238.965)" class="st1 st2 st3">MEANS</text>
		<text transform="matrix(1 0 0 1 5.7999 68.965)" class="st1 st2 st3">VALUE</text>
	</g>
</g>
<g id="Layer_1_1_">
	<g>
		<path class="st4" d="M431.8,73c-8.8,0-16-7.2-16-16V22c0-8.8,7.2-16,16-16h212c8.8,0,16,7.2,16,16v35c0,8.8-7.2,16-16,16H431.8z"
			/>
		<path class="st5" d="M431.8,69c-6.6,0-12-5.4-12-12V22c0-6.6,5.4-12,12-12h212c6.6,0,12,5.4,12,12v35c0,6.6-5.4,12-12,12H431.8z"
			/>
		<path class="st1" d="M643.8,14h-212c-4.4,0-8,3.6-8,8v35c0,4.4,3.6,8,8,8h212c4.4,0,8-3.6,8-8V22C651.8,17.5,648.2,14,643.8,14z"
			/>
		<text transform="matrix(1 0 0 1 489.7999 42.9651)" class="st6 st7 st3">Responsive</text>
		<g>
			<path class="st4" d="M696.8,177c-8.8,0-16-7.2-16-16v-35c0-8.8,7.2-16,16-16h212c8.8,0,16,7.2,16,16v35c0,8.8-7.2,16-16,16H696.8
				z"/>
			<path class="st5" d="M696.8,173c-6.6,0-12-5.4-12-12v-35c0-6.6,5.4-12,12-12h212c6.6,0,12,5.4,12,12v35c0,6.6-5.4,12-12,12H696.8
				z"/>
			<path class="st1" d="M908.8,118h-212c-4.4,0-8,3.6-8,8v35c0,4.4,3.6,8,8,8h212c4.4,0,8-3.6,8-8v-35
				C916.8,121.5,913.2,118,908.8,118z"/>
			<text transform="matrix(1 0 0 1 766.8005 149.2253)" class="st6 st8 st3">Resilient</text>
		</g>
		<g>
			<path class="st4" d="M431.8,282c-8.8,0-16-7.2-16-16v-35c0-8.8,7.2-16,16-16h212c8.8,0,16,7.2,16,16v35c0,8.8-7.2,16-16,16H431.8
				z"/>
			<path class="st5" d="M431.8,278c-6.6,0-12-5.4-12-12v-35c0-6.6,5.4-12,12-12h212c6.6,0,12,5.4,12,12v35c0,6.6-5.4,12-12,12H431.8
				z"/>
			<path class="st1" d="M643.8,223h-212c-4.4,0-8,3.6-8,8v35c0,4.4,3.6,8,8,8h212c4.4,0,8-3.6,8-8v-35
				C651.8,226.5,648.2,223,643.8,223z"/>
		</g>
		<text transform="matrix(1 0 0 1 470.91 253.9655)" class="st6 st8 st3">Message Driven</text>
		<g>
			<path class="st4" d="M165.8,177c-8.8,0-16-7.2-16-16v-35c0-8.8,7.2-16,16-16h212c8.8,0,16,7.2,16,16v35c0,8.8-7.2,16-16,16H165.8
				z"/>
			<path class="st5" d="M165.8,173c-6.6,0-12-5.4-12-12v-35c0-6.6,5.4-12,12-12h212c6.6,0,12,5.4,12,12v35c0,6.6-5.4,12-12,12H165.8
				z"/>
			<path class="st1" d="M377.8,118h-212c-4.4,0-8,3.6-8,8v35c0,4.4,3.6,8,8,8h212c4.4,0,8-3.6,8-8v-35
				C385.8,121.5,382.2,118,377.8,118z"/>
			<text transform="matrix(1 0 0 1 240.7999 148.965)" class="st6 st8 st3">Elastic</text>
		</g>
	</g>
</g>
<g id="Layer_2">
	<path class="st9" d="M407.2,46.7c-31.1,7.7-58.2,18.1-79.5,30.4c-16.3,9.4-29.2,20-37.9,31.4 M395.2,46.7c3.9,0,7.3,0.1,11.2,0.1
		c-3.4,1.9-6.3,3.6-9.6,5.6 M291.6,180.7c21.3,25.8,63.9,47.2,118.9,60.3 M297.5,191.3c-2-3.5-3.6-6.5-5.3-10
		c3.3,2.1,6.1,3.8,9.5,5.7 M666.4,240.7c53.5-13,95.2-33.8,116.6-58.8 M777.2,192.2c2-3.4,3.7-6.4,5.5-10c-3.3,2.1-6.2,3.8-9.6,5.6
		 M782.1,104.1c-13.8-15.7-35.7-29.8-63.6-41.2c-15-6.2-31.8-11.6-50-16.1 M680.8,46.8c-3.9,0-7.3,0-11.3,0.1c3.4,2,6.3,3.6,9.6,5.7
		 M536.3,78v128 M533.3,89.6c1.1-3.8,2-7,3-10.8c1.1,3.8,2,7,3,10.8 M414.8,145h246 M425.7,148c-3.6-1-6.6-1.9-10.2-3
		c3.6-1,6.6-1.9,10.2-3 M650.6,148c3.6-1,6.6-1.9,10.2-3c-3.6-1-6.6-1.9-10.2-3"/>
</g>
</svg>
